<svg id="Layer_5" data-name="Layer 5" xmlns="http://www.w3.org/2000/svg" xmlns:xlink="http://www.w3.org/1999/xlink" viewBox="0 0 97.97 55.79"><defs><style>.cls-1{fill:none;}.cls-2{fill:#fff3ee;}.cls-3{clip-path:url(#clip-path);}.cls-4{fill:#c1272f;}</style><clipPath id="clip-path" transform="translate(-22.98 -44.71)"><path class="cls-1" d="M109.25,91c5.87-1.84,8.14-8.92,10.43-12.75,1.62-2.68-18.93-14.37-18.93-14.37L81.5,72.82,69.25,80.69l-1.61,3C79,90.61,96.33,95.07,109.25,91Z"/></clipPath></defs><path class="cls-2" d="M95.06,90.05m-26.72-6.9c1-2,2.11-4.27,3.19-6.68,0,0,.52-1.27.67-1.6.66-1.74,1.22-3.12,2.19-5.9.07-.19.26-.74.48-1.45.11-.33.82-2.45,1-3s1.34-4.34,1.34-4.34.39-1.31.41-1.37c.09-.33.26-.86-.12-1.23a1.79,1.79,0,0,0-1.15-.33,2.71,2.71,0,0,0-.29,0,1.09,1.09,0,0,0-.86.37,15.52,15.52,0,0,0-.67,1.74,4.74,4.74,0,0,0-4.12-2.26h-.33a8.29,8.29,0,0,0-5.35,2.34,11.45,11.45,0,0,0-2,2.6,13.06,13.06,0,0,0-1.67,6.16,7.28,7.28,0,0,0,1.63,5.34,4.56,4.56,0,0,0,3.34,1.38,7.17,7.17,0,0,0,1.82-.26,6.26,6.26,0,0,0,1.74-.82l-.14.37c-.26.63-.49,1.12-.49,1.15-4.86,11.07-9.8,17.93-13.58,18.82a12.79,12.79,0,0,1-2.86.38A7.36,7.36,0,0,1,45,87.38c0-2.12,1.44-6.31,7.16-7a7.77,7.77,0,0,1,.85,0c3.46,0,7.21,2.3,7.24,2.3a1.36,1.36,0,0,0,.75.22,1.32,1.32,0,0,0,1.15-.63,1.38,1.38,0,0,0-.41-1.89c-.19-.11-4.38-2.79-8.73-2.79a11.12,11.12,0,0,0-1.18.08c-7.65.93-9.62,6.79-9.58,9.8a10.12,10.12,0,0,0,3.86,7.76,10.26,10.26,0,0,0,6.46,2.11,14.89,14.89,0,0,0,3.49-.44c3.45-.82,7.13-4.61,11-11.29m3-25.8a3.09,3.09,0,0,1,1.63.41,2.73,2.73,0,0,1,1.23,1.56c.59,1.37-.08,3.15-.56,4.6l-.11.3a8,8,0,0,1-4.38,5.08h0l-.11,0a2.6,2.6,0,0,1-2,.26c-1.45-.26-1.82-1.59-1.9-2.67a10.91,10.91,0,0,1,.41-3.79l0-.11a10.37,10.37,0,0,1,1.71-3.38A5.59,5.59,0,0,1,70,59.76Z" transform="translate(-22.98 -44.71)"/><g class="cls-3"><path class="cls-2" d="M104.13,73.63c-1.37-4.25-3.2-5.73-3.42-5.91-.51-.4-2.12.93-1.76,1.72A7.94,7.94,0,0,1,100.31,72c.58,2-1,5.14-3.62,6.91-12.62,8.44-7,17.5-3.59,19.61,5.21,3,12.66,2.49,16.58-1.16C118,88.68,108.12,84.17,104.13,73.63Zm4.71,21.06-3.23.13.22,3.22L103,96.54l-1.42,2.91-1.72-2.73-2.68,1.8L97,95.29l-3.22.23,1.5-2.87h0l-2.86-1.4,2.72-1.73,0,0h0l-1.78-2.65,3.21-.14v0h0l-.22-3.2L99.15,85h0l0,0,1.42-2.89,1.71,2.7h0L105,83l.13,3.23,3.22-.22-1.5,2.86,2.9,1.42L107,92Z" transform="translate(-22.98 -44.71)"/><polygon class="cls-2" points="82.35 45.79 83.88 44.14 81.66 43.7 80.94 45.1 82.35 45.79"/><polygon class="cls-2" points="73.99 50.58 76.13 49.85 76.81 52.01 78.3 50.3 79.96 51.84 80.4 49.62 82.61 50.12 81.88 47.97 84.04 47.3 82.34 45.81 82.35 45.79 81.02 46.64 81.91 47.95 80.33 48.02 80.44 49.59 79.04 48.86 78.34 50.29 77.5 48.95 76.18 49.84 76.12 48.26 74.54 48.37 75.27 46.97 73.85 46.27 75.18 45.42 74.3 44.11 75.88 44.05 75.77 42.47 77.17 43.2 77.86 41.78 78.71 43.11 80.02 42.23 80.09 43.81 81.65 43.7 82.15 41.49 80 42.23 79.33 40.08 79.33 40.06 77.84 41.77 76.2 40.25 76.19 40.26 76.17 40.25 75.74 42.45 73.55 41.96 73.56 41.99 73.54 41.99 74.26 44.1 72.11 44.77 72.13 44.8 72.13 44.8 73.8 46.27 72.27 47.93 72.27 47.93 74.49 48.37 73.99 50.58"/><polygon class="cls-4" points="81.66 43.7 81.67 43.7 81.65 43.7 81.65 43.7 81.66 43.7"/><polygon class="cls-4" points="82.36 45.79 82.35 45.79 82.35 45.79 82.36 45.79"/></g><path class="cls-2" d="M55.51,47.58a22.56,22.56,0,0,1-3.76,1.75,20.72,20.72,0,0,1-2.88.62,13.67,13.67,0,0,1-2.75.15h-.31s-1.88,4.43-3.05,7.54l2.6,0a1,1,0,0,1,.67.19c.23.21.12.67.11.74-.07.35-.19.86-.19.86-.2.58-.31.69-1,.69,0,0-2.68,0-3.11.08-.58,1.4-3.53,9.09-3.65,9.32-.23.51-.51,1.09-.78,1.59a14.24,14.24,0,0,1-2.21,3.19,11,11,0,0,1-1.48,1.2,6.89,6.89,0,0,1-3.88,1.17A7.19,7.19,0,0,1,25.25,75,7.08,7.08,0,0,1,23,70.1,10.29,10.29,0,0,1,23.11,68a7.65,7.65,0,0,1,1.25-3A5.84,5.84,0,0,1,26,63.46a3.81,3.81,0,0,1,2-.54,3,3,0,0,1,3.14,2.33.45.45,0,0,1,0,.39.55.55,0,0,1-.31.19c-.23.08-1.24.51-1.24.51a.89.89,0,0,1-.27.07c-.2,0-.31-.19-.39-.35a.93.93,0,0,0-.89-.58.67.67,0,0,0-.2,0,1.88,1.88,0,0,0-.81.43l0,0a3.49,3.49,0,0,0-.86,1.28,5.15,5.15,0,0,0-.46,2.29,4.19,4.19,0,0,0,3.65,4.16,3.65,3.65,0,0,0,.89.07c2.25,0,3.54-1.7,4.74-3.61a21.43,21.43,0,0,0,1.55-3.3S38,62.92,39,60.16c-.66,0-2.22,0-2.33,0-.43,0-.82,0-1-.27a.72.72,0,0,1-.12-.58c.19-.74.27-1,.31-1.13a.81.81,0,0,1,.82-.54h0c.86-.08,2.06,0,3.27,0,.46-1.24,3.08-7.89,3.08-8a23.46,23.46,0,0,0-2.41-.55l-.89-.19c-1.25-.23-2.57-.47-3.69-.78a17.58,17.58,0,0,0-4.58-.74,7.34,7.34,0,0,0-1.67.16A4.59,4.59,0,0,0,26.5,50a3.28,3.28,0,0,0,.43,3.22c.82.7,2.22.74,4.08.12a.47.47,0,0,1,.23,0,.63.63,0,0,1,.55.31,1.87,1.87,0,0,1,.31,1.51c-.2.66-.66.76-1.09.9l-.24.07a6.07,6.07,0,0,1-1.9.28,6.43,6.43,0,0,1-2.75-.59A4.7,4.7,0,0,1,24,53.6a5.51,5.51,0,0,1-.27-3.73,6.1,6.1,0,0,1,2.06-3.14,8.1,8.1,0,0,1,5.39-1.79,27.05,27.05,0,0,1,5.05.7l3.26.7a49.37,49.37,0,0,0,5.75,1H46a15.64,15.64,0,0,0,3.18-.24,13.15,13.15,0,0,0,4.47-1.51c.35-.2.74-.39,1.24-.62a3.09,3.09,0,0,1,.51-.24.64.64,0,0,1,.27-.07.79.79,0,0,1,.48.27,5.25,5.25,0,0,1,.6.81A1,1,0,0,1,56.41,47,7.09,7.09,0,0,1,55.51,47.58Z" transform="translate(-22.98 -44.71)"/><path class="cls-2" d="M63.35,66.87a4.72,4.72,0,0,1-.76,1.63s-1.31,1.92-1.42,2.06a24.51,24.51,0,0,1-2.39,2.87,4.92,4.92,0,0,1-4,1.55,3.74,3.74,0,0,1-3-2l-.14.14a6.67,6.67,0,0,1-3.92,2.14,1.71,1.71,0,0,1-.39,0,3.79,3.79,0,0,1-3.12-1.52,4.79,4.79,0,0,1-.8-2.21,11.31,11.31,0,0,1,.84-5.21l.07-.15c.51-1.45.87-2.53,1.48-3.87.29-.69,1.49-3.7,1.74-4.24a1.16,1.16,0,0,1,1.13-.62,8.14,8.14,0,0,1,1.3.11.51.51,0,0,1,.33.18.24.24,0,0,1,.07.18.7.7,0,0,1-.07.22C49.15,61,47.73,64.4,46.5,68.14c-.61,1.73-.61,3.18-.11,3.87s1.09.62,1.92.36a6.22,6.22,0,0,0,2.32-2,14.29,14.29,0,0,0,2.25-3.7c.72-1.52,1.23-2.86,1.74-4.13C55,61.65,56,59.15,56.1,59a6,6,0,0,1,.47-1,1.39,1.39,0,0,1,.91-.4,3.59,3.59,0,0,1,1.22.19A.59.59,0,0,1,59,58a.35.35,0,0,1,0,.29,4.75,4.75,0,0,1-.18.62s-.48,1.23-.84,2-.54,1.3-.61,1.45L55.7,66.32c-.54,1.24-.9,2.18-1.19,3.05-.47,1.27-.47,2.06,0,2.5a1.37,1.37,0,0,0,1,.54,2.94,2.94,0,0,0,1.81-1A13.4,13.4,0,0,0,59,69.37l1.3-1.81c.19-.26.58-.87.58-.87s.15-.18.22-.29a1.94,1.94,0,0,1,.58-.65,1,1,0,0,1,1.2.1A1.14,1.14,0,0,1,63.35,66.87Z" transform="translate(-22.98 -44.71)"/><path class="cls-2" d="M95.69,66.84a5,5,0,0,1-.79,1.7c-.27.43-1.42,2.1-1.42,2.1a11.42,11.42,0,0,1-2,2.36,10.06,10.06,0,0,1-6.66,2.5h-.15a6.19,6.19,0,0,1-6.3-5c-.07-.29-.19-.93-.22-1.16A12.86,12.86,0,0,1,81,60.17a7.54,7.54,0,0,1,2.79-2.28,6.49,6.49,0,0,1,2.32-.65h.58c3.18,0,4.42,1.7,4.78,2.46a5.89,5.89,0,0,1-1.2,6.56,7,7,0,0,1-1.59,1,9.35,9.35,0,0,1-1.6.58l-.14,0a17.82,17.82,0,0,1-4,.51h0c-.69,0-2.18-.07-2.21-.07v.14a4.11,4.11,0,0,0,.94,2.9,4.42,4.42,0,0,0,2.75,1.45,5.6,5.6,0,0,0,.84.07,6.37,6.37,0,0,0,3.29-.87A8.78,8.78,0,0,0,91,69.81c.57-.74,1.48-2,1.48-2,.25-.36.51-.8.66-1.06l.07-.11a3.5,3.5,0,0,1,.8-1,1.16,1.16,0,0,1,1.66,1.13ZM81.2,65.71s.07,0,.15,0c.5,0,1,.11,1.55.11H83a18.33,18.33,0,0,0,2.83-.29,4.56,4.56,0,0,0,2.79-1.38,2.54,2.54,0,0,0,.76-1.34,2.88,2.88,0,0,0,0-.94,3,3,0,0,0-.69-1.7,2.42,2.42,0,0,0-1.45-.69h0a2.28,2.28,0,0,0-.54,0A4.17,4.17,0,0,0,84,60.53a7.75,7.75,0,0,0-1.45,1.74,8.48,8.48,0,0,0-1.31,3.34Z" transform="translate(-22.98 -44.71)"/><g id="Layer_7" data-name="Layer 7"><path class="cls-2" d="M53.68,53.34a1.93,1.93,0,1,1-2.45-.59A1.8,1.8,0,0,1,53.68,53.34Z" transform="translate(-22.98 -44.71)"/><path class="cls-2" d="M58.42,53.34A1.93,1.93,0,1,1,56,52.75,1.79,1.79,0,0,1,58.42,53.34Z" transform="translate(-22.98 -44.71)"/></g><path class="cls-2" d="M99.08,93.73c-8.48,0-19.36-2.87-33.23-8.7a1.31,1.31,0,0,1-.7-1.7,1.3,1.3,0,0,1,1.7-.69c19.87,8.35,33.68,10.5,42.22,6.56,4.48-2.06,7.52-5.76,9.3-11.3a1.18,1.18,0,0,1,1.62-.83c1.08.26,1.06.94.84,1.62-2,6.19-5.57,10.51-10.68,12.87A26.21,26.21,0,0,1,99.08,93.73Z" transform="translate(-22.98 -44.71)"/></svg>